<svg width="441" height="68" viewBox="0 0 441 68" fill="none" xmlns="http://www.w3.org/2000/svg">
<g clip-path="url(#clip0)">
<path d="M145.929 25.7263C145.944 23.3626 145.284 16.1807 137.134 16.1807C127.905 16.1807 123.517 25.2718 122.141 33.9992C120.764 42.7267 122.287 51.8178 131.514 51.8178C138.142 51.8178 141.486 47.0889 143.611 40.9979H162.961C160.896 54.0906 148.223 67.9985 129.5 67.9985C108.808 67.9985 99.4089 53.1785 102.434 33.9992C105.659 13.5442 120.513 0 140.222 0C157.765 0.0924263 165.963 9.45475 165.099 25.7263H145.929Z" fill="#216093"/>
<path d="M257.162 25.7263C257.177 23.3626 256.517 16.1807 248.366 16.1807C239.136 16.1807 234.748 25.2718 233.373 33.9992C231.997 42.7267 233.519 51.8178 242.747 51.8178C249.374 51.8178 252.719 47.0889 254.843 40.9979H274.193C272.128 54.0906 259.455 67.9985 240.732 67.9985C220.04 67.9985 210.641 53.1785 213.666 33.9992C216.891 13.5442 231.746 0 251.454 0C268.999 0.0924263 277.196 9.45475 276.331 25.7263H257.162Z" fill="#216093"/>
<path d="M421.769 25.7263C421.784 23.3626 421.124 16.1807 412.974 16.1807C403.744 16.1807 399.356 25.2718 397.981 33.9992C396.604 42.7267 398.127 51.8178 407.354 51.8178C413.982 51.8178 417.326 47.0889 419.451 40.9979H438.801C436.736 54.0906 424.063 67.9985 405.34 67.9985C384.648 67.9985 375.249 53.1785 378.274 33.9992C381.497 13.5442 396.353 0 416.062 0C433.606 0.0924263 441.803 9.45475 440.939 25.7263H421.769Z" fill="#216093"/>
<path d="M183.807 30.2446H196.539L194.936 40.2297H182.203L183.807 30.2446Z" fill="#216093"/>
<path d="M104.131 20.0914C106.066 7.81835 97.3814 1.547 86.1835 1.547H48.6496L46.213 17.0004H75.1468C82.6718 17.0004 84.5396 19.3641 83.8931 23.4566C82.9764 29.2749 77.8582 29.9098 74.1853 29.9098H44.1779L43.2836 35.5765L30.3896 1.547H10.2334L0 66.4515H18.6318L24.2218 30.9992H24.401L38.4192 66.4257L38.4148 66.453H38.4297H57.6005H58.123L61.6929 43.8192H72.1742C79.9679 43.8192 79.4871 50.2708 79.0512 56.4528C78.7899 59.818 78.6167 63.1787 79.087 66.453H98.7938C97.4754 63.4544 98.6042 55.7285 98.8356 52.5466C99.3955 44.4525 97.0275 38.4539 91.981 36.3644C98.9073 33.9083 103.07 26.8173 104.131 20.0914Z" fill="#216093"/>
<path d="M378.856 20.0914C380.79 7.81835 372.106 1.547 360.908 1.547H323.374L320.936 17.0004H349.87C357.397 17.0004 359.263 19.3641 358.618 23.4566C357.7 29.2749 352.581 29.9098 348.91 29.9098H318.9L318.007 35.5765L305.111 1.547H284.955L274.722 66.453H293.353L298.943 31.0007H299.124L313.142 66.4272L313.136 66.4545H313.151H332.322H332.845L336.415 43.8207H346.896C354.691 43.8207 354.209 50.2723 353.773 56.4543C353.512 59.8195 353.34 63.1802 353.809 66.4545H373.516C372.196 63.456 373.326 55.73 373.556 52.5481C374.116 44.454 371.748 38.4554 366.703 36.366C373.63 33.9083 377.795 26.8173 378.856 20.0914Z" fill="#216093"/>
</g>
<defs>
<clipPath id="clip0">
<rect width="441" height="68" fill="white"/>
</clipPath>
</defs>
</svg>
