<svg width="742" height="434" viewBox="0 0 742 434" fill="none" xmlns="http://www.w3.org/2000/svg">
<g clip-path="url(#clip0)">
<path opacity="0.1" d="M685.11 343.187C684.283 345.145 683.459 347.076 682.637 348.982C681.354 351.942 680.088 354.845 678.839 357.691C678.283 358.952 677.727 360.189 677.186 361.426C671.058 375.186 665.336 387.356 660.476 397.365C656.067 406.434 649.519 414.033 641.52 419.365C633.52 424.697 624.363 427.567 615.008 427.673L506.949 428.965H505.809L496.546 429.075L488.622 429.169L464.324 429.459H463.34L450.97 429.608H450.593L374.349 430.516L306.293 431.299L298.376 431.393L249.21 431.981H249.153L217.266 432.356H216.924L116.097 433.555L85.9346 433.915C79.4979 433.995 73.0882 432.986 66.9307 430.923C56.2153 427.366 46.5853 420.664 39.0768 411.54C26.1225 395.854 16.6812 377.551 10.3394 357.691C9.42259 354.824 8.56752 351.921 7.77421 348.982C-14.1797 267.417 12.584 162.184 60.7528 91.7632C62.7717 88.8185 64.8239 85.9469 66.9093 83.1485L66.9592 83.0858C81.7733 63.0998 98.383 46.4029 116.076 34.5303C147.428 13.4557 182.165 7.5194 216.333 25.2108C245.241 40.1847 272.233 47.2253 298.398 49.1361C301.041 49.3241 303.685 49.4651 306.314 49.5512C366.333 51.6266 422.582 27.8579 488.636 12.5159C491.266 11.9051 493.902 11.302 496.56 10.7303C543.681 0.424027 595.954 -5.01105 658.118 6.41515C664.576 7.57474 670.949 9.24989 677.186 11.4273C679.927 12.3984 682.568 13.4426 685.11 14.5599C714.78 27.8266 730.963 52.3392 737.839 83.0545C738.49 85.9052 739.053 88.8055 739.528 91.7553C751.719 165.638 716.013 270.44 685.11 343.187Z" fill="#6C63FF"/>
<g opacity="0.1">
<path opacity="0.1" d="M116.076 34.5292V433.64L85.913 434C79.4763 434.08 73.0667 433.071 66.9091 431.008V83.0847H66.959C81.7731 63.0752 98.3828 46.3783 116.076 34.5292Z" fill="#6C63FF"/>
<path opacity="0.1" d="M739.563 91.762H60.7526C62.7715 88.8174 64.8237 85.9458 66.9091 83.1474V83.0847H737.874C738.525 85.9197 739.088 88.8122 739.563 91.762Z" fill="#6C63FF"/>
<path opacity="0.1" d="M685.109 14.5666V348.973H682.637C681.354 351.933 680.088 354.836 678.839 357.682C678.283 358.943 677.727 360.18 677.186 361.417V11.4027C679.927 12.3738 682.568 13.4285 685.109 14.5666Z" fill="#6C63FF"/>
<path opacity="0.1" d="M496.56 10.7057V429.105L488.636 429.199V12.4913C491.265 11.8804 493.902 11.2774 496.56 10.7057Z" fill="#6C63FF"/>
<path opacity="0.1" d="M306.314 49.5266V431.376L298.398 431.47V49.1115C301.041 49.2995 303.685 49.4091 306.314 49.5266Z" fill="#6C63FF"/>
<path opacity="0.1" d="M682.637 348.981C681.354 351.941 680.088 354.844 678.839 357.69H10.3392C9.42237 354.823 8.5673 351.92 7.77399 348.981H682.637Z" fill="#6C63FF"/>
</g>
<path d="M164.316 208.186H150.777V253.342H164.316V208.186Z" fill="#101820"/>
<path d="M528.668 205.836H515.129V253.608H528.668V205.836Z" fill="#101820"/>
<path d="M615.008 417.93V428.111L506.756 429.207L505.602 429.231L464.459 429.646L463.476 429.661L450.97 429.779H450.6L374.37 430.554L249.238 431.831H249.131L217.316 432.16L216.974 432.167L75.6023 433.593V421.846L108.843 399.917L175.538 399.306L176.964 399.298L177.434 399.291L178.859 399.267L210.881 398.977L212.314 398.97L212.77 398.962L214.195 398.954L224.463 398.86L224.733 398.852L250.065 398.617H250.271L447.935 396.785L452.773 396.745H453.258L456.949 396.706L483.777 396.463L485.202 396.44L486.52 396.424H487.204L495.548 396.354L497.201 396.33L499.417 396.315L506.365 396.244L517.388 396.142L518.813 396.127L521.293 396.111H521.756L574.991 395.61L615.008 417.93Z" fill="#65617D"/>
<path opacity="0.2" d="M615.008 417.93V428.111L506.756 429.207L505.602 429.231L464.459 429.646L463.476 429.661L450.97 429.779H450.6L374.37 430.554L249.238 431.831H249.131L217.316 432.16L216.974 432.167L75.6023 433.593V421.846L108.843 399.917L175.538 399.306L176.964 399.298L177.434 399.291L178.859 399.267L210.881 398.977L212.314 398.97L212.77 398.962L214.195 398.954L224.463 398.86L224.733 398.852L250.065 398.617H250.271L447.935 396.785L452.773 396.745H453.258L456.949 396.706L483.777 396.463L485.202 396.44L486.52 396.424H487.204L495.548 396.354L497.201 396.33L499.417 396.315L506.365 396.244L517.388 396.142L518.813 396.127L521.293 396.111H521.756L574.991 395.61L615.008 417.93Z" fill="#4F4F4F"/>
<path d="M210.988 378.78V397.959C210.989 398.868 210.754 399.758 210.313 400.526C209.871 401.294 209.241 401.908 208.494 402.298C207.938 402.594 207.331 402.755 206.713 402.768L181.845 403.347C181.18 403.365 180.522 403.212 179.921 402.901C179.161 402.518 178.517 401.904 178.066 401.13C177.615 400.357 177.376 399.457 177.377 398.539V378.78H210.988Z" fill="#101820"/>
<path opacity="0.1" d="M210.988 378.78V397.959C210.989 398.868 210.754 399.758 210.313 400.526C209.871 401.294 209.241 401.908 208.494 402.298C207.938 402.594 207.331 402.755 206.713 402.768L181.845 403.347C181.18 403.365 180.522 403.212 179.921 402.901C179.161 402.518 178.517 401.904 178.066 401.13C177.615 400.357 177.376 399.457 177.377 398.539V378.78H210.988Z" fill="#4F4F4F"/>
<path d="M212.413 378.78V397.959C212.414 398.868 212.18 399.758 211.738 400.526C211.297 401.294 210.666 401.908 209.919 402.298C209.363 402.594 208.756 402.755 208.138 402.768L183.27 403.347C182.606 403.365 181.947 403.212 181.346 402.901C180.586 402.518 179.942 401.904 179.491 401.13C179.04 400.357 178.801 399.457 178.802 398.539V378.78H212.413Z" fill="#101820"/>
<path d="M518.813 378.78H485.202V403.449H518.813V378.78Z" fill="#101820"/>
<path opacity="0.1" d="M518.813 378.78H485.202V403.449H518.813V378.78Z" fill="#4F4F4F"/>
<path d="M517.388 378.78H483.776V403.449H517.388V378.78Z" fill="#101820"/>
<path opacity="0.1" d="M164.316 208.178V212.665L150.777 212.282V208.178H164.316Z" fill="#4F4F4F"/>
<path d="M253.428 81.7612L237.16 210.198C237.057 211.019 236.683 211.769 236.108 212.305C235.534 212.841 234.8 213.125 234.047 213.104L103.791 209.392L101.318 209.321C100.888 209.31 100.464 209.199 100.076 208.996C99.6866 208.793 99.341 208.502 99.0614 208.142C98.7817 207.782 98.5741 207.361 98.4523 206.907C98.3304 206.453 98.297 205.976 98.3542 205.507L116.617 71.0555C116.735 70.2227 117.132 69.4686 117.731 68.9423C118.33 68.416 119.087 68.1556 119.852 68.2126L250.578 77.9394C251 77.9663 251.412 78.0889 251.788 78.2996C252.165 78.5104 252.497 78.8046 252.765 79.1637C253.033 79.5228 253.23 79.939 253.344 80.3861C253.458 80.8332 253.487 81.3014 253.428 81.7612V81.7612Z" fill="#65617D"/>
<path d="M125.36 77.6575L111.586 196.172L231.296 200.346L246.017 86.0059L125.36 77.6575Z" fill="#6C63FF"/>
<path d="M416.091 75.8249H277.847C275.75 75.8249 274.049 77.6937 274.049 79.9991V207.395C274.049 209.7 275.75 211.569 277.847 211.569H416.091C418.188 211.569 419.889 209.7 419.889 207.395V79.9991C419.889 77.6937 418.188 75.8249 416.091 75.8249Z" fill="#65617D"/>
<path d="M413.468 84.9643H280.933V197.997H413.468V84.9643Z" fill="#6C63FF"/>
<path opacity="0.1" d="M528.668 205.828V208.796L515.129 209.102V205.828H528.668Z" fill="#4F4F4F"/>
<path d="M589.755 203.322C589.774 203.647 589.734 203.972 589.636 204.279C589.538 204.586 589.384 204.868 589.184 205.108C588.985 205.347 588.743 205.541 588.474 205.675C588.204 205.81 587.913 205.883 587.617 205.891L454.227 208.922C453.673 208.934 453.135 208.716 452.721 208.311C452.307 207.906 452.048 207.343 451.996 206.737L440.531 75.7309C440.503 75.4059 440.535 75.0779 440.625 74.7669C440.716 74.4559 440.863 74.1683 441.057 73.9215C441.252 73.6748 441.49 73.474 441.757 73.3313C442.024 73.1887 442.315 73.1072 442.612 73.0917L574.991 65.8554L576.416 65.777C576.983 65.7442 577.538 65.9546 577.967 66.3637C578.395 66.7728 578.661 67.3487 578.71 67.9699L589.755 203.322Z" fill="#65617D"/>
<path d="M448.149 80.7901L569.048 74.2586L579.259 193.298L459.314 196.431L448.149 80.7901Z" fill="#6C63FF"/>
<path opacity="0.1" d="M589.755 203.322C589.774 203.647 589.734 203.972 589.636 204.279C589.538 204.586 589.384 204.868 589.185 205.108C588.985 205.347 588.743 205.541 588.474 205.675C588.204 205.81 587.913 205.883 587.617 205.891L574.991 65.8554L576.416 65.777C576.983 65.7442 577.538 65.9546 577.967 66.3637C578.395 66.7728 578.661 67.3487 578.71 67.9699L589.755 203.322Z" fill="#4F4F4F"/>
<path opacity="0.1" d="M119.873 68.2048L103.791 209.392L101.318 209.321C100.888 209.31 100.464 209.199 100.076 208.996C99.6866 208.793 99.341 208.502 99.0614 208.142C98.7817 207.782 98.5741 207.361 98.4523 206.907C98.3304 206.453 98.297 205.976 98.3542 205.507L116.617 71.0555C116.733 70.2169 117.133 69.4575 117.737 68.929C118.341 68.4005 119.104 68.1419 119.873 68.2048V68.2048Z" fill="#4F4F4F"/>
<path opacity="0.1" d="M164.316 239.966H150.777V253.342H164.316V239.966Z" fill="#4F4F4F"/>
<path opacity="0.1" d="M212.413 378.772V382.664L178.802 383.651V378.772H212.413Z" fill="#4F4F4F"/>
<path d="M271.734 244.626V376.352C271.725 377.156 271.435 377.926 270.925 378.502C270.414 379.077 269.721 379.415 268.99 379.446L132.429 383.44H132.393C131.65 383.43 130.939 383.1 130.413 382.522C129.887 381.944 129.588 381.163 129.579 380.346V244.626C129.588 243.808 129.887 243.028 130.413 242.45C130.939 241.872 131.65 241.542 132.393 241.532H268.919C269.663 241.542 270.373 241.872 270.899 242.45C271.425 243.028 271.724 243.808 271.734 244.626V244.626Z" fill="#65617D"/>
<path opacity="0.1" d="M132.429 241.532V383.44H132.393C131.65 383.43 130.939 383.1 130.413 382.522C129.887 381.944 129.588 381.163 129.579 380.346V244.626C129.588 243.808 129.887 243.028 130.413 242.45C130.939 241.872 131.65 241.542 132.393 241.532H132.429Z" fill="#4F4F4F"/>
<path d="M138.664 249.943H265.143V366.046L138.664 369.178V249.943Z" fill="#D4DFEC"/>
<path opacity="0.1" d="M528.668 239.966H515.129V253.608H528.668V239.966Z" fill="#4F4F4F"/>
<path opacity="0.1" d="M517.388 378.772V383.792L483.776 382.805V378.772H517.388Z" fill="#4F4F4F"/>
<path d="M561.745 244.626V380.346C561.735 381.17 561.431 381.957 560.897 382.536C560.364 383.115 559.644 383.44 558.894 383.44V383.44L422.304 379.446C421.573 379.415 420.88 379.077 420.37 378.502C419.859 377.926 419.569 377.156 419.561 376.352V244.626C419.57 243.808 419.87 243.028 420.395 242.45C420.921 241.872 421.632 241.542 422.375 241.532H558.901C559.65 241.534 560.368 241.86 560.9 242.439C561.432 243.017 561.735 243.803 561.745 244.626V244.626Z" fill="#65617D"/>
<path opacity="0.1" d="M561.745 244.626V380.346C561.735 381.17 561.431 381.957 560.897 382.536C560.364 383.115 559.644 383.44 558.894 383.44V383.44V241.532C559.644 241.532 560.364 241.857 560.897 242.436C561.431 243.015 561.735 243.802 561.745 244.626Z" fill="#4F4F4F"/>
<path d="M552.659 249.943H426.18V366.046L552.659 369.178V249.943Z" fill="#D4DFEC"/>
<path d="M416.026 244.626V376.352C416.018 377.156 415.728 377.926 415.218 378.502C414.707 379.077 414.014 379.415 413.283 379.446L276.722 383.44C275.972 383.44 275.252 383.115 274.719 382.536C274.185 381.957 273.881 381.17 273.871 380.346V244.626C273.881 243.808 274.18 243.028 274.706 242.45C275.232 241.872 275.942 241.542 276.686 241.532H413.212C413.955 241.542 414.666 241.872 415.192 242.45C415.718 243.028 416.017 243.808 416.026 244.626V244.626Z" fill="#65617D"/>
<path d="M282.956 249.943H409.435V366.046L282.956 369.178V249.943Z" fill="#D4DFEC"/>
<path opacity="0.1" d="M615.008 417.93V428.111L506.756 429.207L505.602 429.231L464.459 429.646L463.476 429.661L450.97 429.779H450.6L374.37 430.554L249.238 431.831H249.131L217.316 432.16L216.974 432.167L75.6023 433.593V421.846L219.902 420.804H220.244L249.452 420.585H249.587L451.298 419.12H451.505L451.626 419.112H451.961L455.374 419.089H456.414L509.493 418.697L512.628 418.682L513.326 418.674L615.008 417.93Z" fill="#4F4F4F"/>
<path d="M347.201 253.342C367.401 253.342 383.776 235.344 383.776 213.143C383.776 190.942 367.401 172.944 347.201 172.944C327.001 172.944 310.625 190.942 310.625 213.143C310.625 235.344 327.001 253.342 347.201 253.342Z" fill="#FBBEBE"/>
<path d="M383.783 295.374C383.783 295.374 312.884 304.772 319.653 295.374C322.104 291.975 322.781 281.904 322.646 270.431C322.603 266.946 322.489 263.335 322.325 259.741C321.541 242.511 319.653 225.673 319.653 225.673C319.653 225.673 381.646 193.564 374.52 219.017C371.67 229.299 372.603 243.741 374.769 257.297C375.404 261.252 376.138 265.129 376.907 268.809C378.785 277.788 381.08 286.654 383.783 295.374V295.374Z" fill="#FBBEBE"/>
<path opacity="0.1" d="M383.783 295.374C383.783 295.374 312.884 304.772 319.653 295.374C322.104 291.975 322.781 281.904 322.646 270.431C333.455 265.356 347.208 269.138 347.208 269.138C361.687 265.967 370.972 266.585 376.907 268.81C378.785 277.788 381.08 286.654 383.783 295.374V295.374Z" fill="#4F4F4F"/>
<path d="M249.21 432.716V432.058L374.349 430.562L450.593 429.779H450.806L450.728 430.938L450.835 429.779H450.97V429.646L451.946 419.112L452.317 415.126L452.431 413.881L452.531 412.839L456.934 396.698L461.338 380.581L465.043 367.009L470.701 346.271C470.701 346.271 467.494 338.048 465.713 335.699C463.932 333.349 462.15 317.295 462.15 317.295C462.15 317.295 446.944 301.373 440.296 299.54C437.51 298.757 432.009 297.716 426.166 296.408C423.979 295.922 421.734 295.405 419.575 294.842C418.356 294.536 417.159 294.215 416.012 293.894C413.779 293.281 411.579 292.533 409.421 291.654C408.29 291.202 407.213 290.6 406.214 289.861C400.977 285.639 387.852 285.162 387.346 285.162C387.345 285.144 387.345 285.125 387.346 285.107V285.036C387.364 284.708 387.364 284.378 387.346 284.05C387.346 283.736 387.346 283.368 387.282 282.953C387.282 282.828 387.282 282.695 387.232 282.562C387.196 282.28 387.154 281.982 387.089 281.669C387.068 281.529 387.039 281.39 387.004 281.254C386.797 280.31 386.499 279.394 386.113 278.521C386.063 278.395 385.999 278.262 385.942 278.137C385.593 277.413 385.188 276.724 384.731 276.077C384.638 275.944 384.538 275.803 384.432 275.67C383.848 274.913 383.199 274.221 382.493 273.602C382.301 273.438 382.102 273.266 381.895 273.109C381.78 273.006 381.658 272.912 381.532 272.827L380.897 272.373L380.306 271.997C379.786 271.684 379.237 271.378 378.639 271.088C378.453 270.994 378.254 270.908 378.054 270.822C377.855 270.736 377.541 270.603 377.278 270.493H377.235L376.7 270.258C376.294 270.11 375.881 269.976 375.446 269.843L374.784 269.655L374.071 269.475L373.358 269.311C372.646 269.154 371.884 269.013 371.085 268.903L370.273 268.794L369.439 268.7L368.577 268.622L367.352 268.543L365.927 268.488C359.641 268.488 353.374 269.22 347.229 270.673C342.96 269.629 338.588 269.187 334.218 269.358H333.598L332.885 269.405H332.429L331.51 269.499C331.204 269.499 330.89 269.569 330.584 269.616C330.277 269.663 329.957 269.702 329.65 269.757L329.18 269.843C328.717 269.929 328.247 270.023 327.755 270.133C327.598 270.164 327.441 270.204 327.285 270.25C326.665 270.399 326.045 270.579 325.432 270.783C325.126 270.877 324.819 270.987 324.513 271.104C324.356 271.151 324.206 271.214 324.057 271.276L323.601 271.457L323.152 271.652L322.617 271.887C322.347 272.013 322.083 272.146 321.819 272.287C321.67 272.357 321.52 272.436 321.377 272.522C321.235 272.608 321.085 272.678 320.95 272.764C319.339 273.679 317.85 274.834 316.525 276.195L316.162 276.578L315.805 276.978C315.684 277.111 315.57 277.252 315.456 277.393C314.992 277.951 314.559 278.539 314.159 279.155C314.045 279.319 313.938 279.484 313.832 279.656C313.379 280.389 312.97 281.153 312.606 281.943C312.513 282.131 312.428 282.327 312.342 282.515C311.761 283.838 311.284 285.213 310.917 286.626C310.784 287.148 310.663 287.67 310.554 288.193C310.554 288.193 295.469 295.507 282.956 300.801C279.629 302.211 276.494 303.488 273.871 304.451C273.109 304.733 272.396 304.991 271.734 305.234C270.296 305.805 268.8 306.184 267.28 306.362C266.564 306.375 265.849 306.448 265.142 306.581C259.392 307.607 249.537 312.063 248.462 316.535C248.374 316.892 248.35 317.264 248.39 317.631C248.39 317.631 248.39 317.686 248.39 317.717C249.103 323.199 244.115 322.416 244.115 322.416C244.115 322.416 242.334 336.905 239.84 340.82C238.037 343.64 236.804 349.928 236.647 354.674C236.558 356.153 236.663 357.638 236.961 359.084C236.961 359.123 236.961 359.162 236.961 359.193C237.246 360.243 236.562 363.109 235.4 366.782C234.139 370.815 232.301 375.827 230.534 380.558C227.869 387.7 225.36 394.184 225.204 395.61C225.14 396.244 224.954 397.38 224.698 398.844C223.657 404.812 221.349 416.175 220.209 420.773C219.361 424.203 218.128 428.902 217.28 432.128C217.28 432.222 217.23 432.316 217.209 432.402L249.153 432.058V432.716H249.252H249.21Z" fill="#6C63FF"/>
<path d="M249.21 432.716V432.058L374.349 430.562L450.593 429.779H450.806L450.728 430.938L450.835 429.779H450.97V429.646L451.946 419.112L452.317 415.126L452.431 413.881L452.531 412.839L456.934 396.698L461.338 380.581L465.043 367.009L470.701 346.271C470.701 346.271 467.494 338.048 465.713 335.699C463.932 333.349 462.15 317.295 462.15 317.295C462.15 317.295 446.944 301.373 440.296 299.54C437.51 298.757 432.009 297.716 426.166 296.408C423.979 295.922 421.734 295.405 419.575 294.842C418.356 294.536 417.159 294.215 416.012 293.894C413.779 293.281 411.579 292.533 409.421 291.654C408.29 291.202 407.213 290.6 406.214 289.861C400.977 285.639 387.852 285.162 387.346 285.162C387.345 285.144 387.345 285.125 387.346 285.107V285.036C387.364 284.708 387.364 284.378 387.346 284.05C387.346 283.736 387.346 283.368 387.282 282.953C387.282 282.828 387.282 282.695 387.232 282.562C387.196 282.28 387.154 281.982 387.089 281.669C387.068 281.529 387.039 281.39 387.004 281.254C386.797 280.31 386.499 279.394 386.113 278.521C386.063 278.395 385.999 278.262 385.942 278.137C385.593 277.413 385.188 276.724 384.731 276.077C384.638 275.944 384.538 275.803 384.432 275.67C383.848 274.913 383.199 274.221 382.493 273.602C382.301 273.438 382.102 273.266 381.895 273.109C381.78 273.006 381.658 272.912 381.532 272.827L380.897 272.373L380.306 271.997C379.786 271.684 379.237 271.378 378.639 271.088C378.453 270.994 378.254 270.908 378.054 270.822C377.855 270.736 377.541 270.603 377.278 270.493H377.235L376.7 270.258C376.294 270.11 375.881 269.976 375.446 269.843L374.784 269.655L374.071 269.475L373.358 269.311C372.646 269.154 371.884 269.013 371.085 268.903L370.273 268.794L369.439 268.7L368.577 268.622L367.352 268.543L365.927 268.488C359.641 268.488 353.374 269.22 347.229 270.673C342.96 269.629 338.588 269.187 334.218 269.358H333.598L332.885 269.405H332.429L331.51 269.499C331.204 269.499 330.89 269.569 330.584 269.616C330.277 269.663 329.957 269.702 329.65 269.757L329.18 269.843C328.717 269.929 328.247 270.023 327.755 270.133C327.598 270.164 327.441 270.204 327.285 270.25C326.665 270.399 326.045 270.579 325.432 270.783C325.126 270.877 324.819 270.987 324.513 271.104C324.356 271.151 324.206 271.214 324.057 271.276L323.601 271.457L323.152 271.652L322.617 271.887C322.347 272.013 322.083 272.146 321.819 272.287C321.67 272.357 321.52 272.436 321.377 272.522C321.235 272.608 321.085 272.678 320.95 272.764C319.339 273.679 317.85 274.834 316.525 276.195L316.162 276.578L315.805 276.978C315.684 277.111 315.57 277.252 315.456 277.393C314.992 277.951 314.559 278.539 314.159 279.155C314.045 279.319 313.938 279.484 313.832 279.656C313.379 280.389 312.97 281.153 312.606 281.943C312.513 282.131 312.428 282.327 312.342 282.515C311.761 283.838 311.284 285.213 310.917 286.626C310.784 287.148 310.663 287.67 310.554 288.193C310.554 288.193 295.469 295.507 282.956 300.801C279.629 302.211 276.494 303.488 273.871 304.451C273.109 304.733 272.396 304.991 271.734 305.234C270.296 305.805 268.8 306.184 267.28 306.362C266.564 306.375 265.849 306.448 265.142 306.581C259.392 307.607 249.537 312.063 248.462 316.535C248.374 316.892 248.35 317.264 248.39 317.631C248.39 317.631 248.39 317.686 248.39 317.717C249.103 323.199 244.115 322.416 244.115 322.416C244.115 322.416 242.334 336.905 239.84 340.82C238.037 343.64 236.804 349.928 236.647 354.674C236.558 356.153 236.663 357.638 236.961 359.084C236.961 359.123 236.961 359.162 236.961 359.193C237.246 360.243 236.562 363.109 235.4 366.782C234.139 370.815 232.301 375.827 230.534 380.558C227.869 387.7 225.36 394.184 225.204 395.61C225.14 396.244 224.954 397.38 224.698 398.844C223.657 404.812 221.349 416.175 220.209 420.773C219.361 424.203 218.128 428.902 217.28 432.128C217.28 432.222 217.23 432.316 217.209 432.402L249.153 432.058V432.716H249.252H249.21Z" fill="url(#paint0_linear)"/>
<path opacity="0.1" d="M260.867 340.405C260.867 340.405 301.483 363.508 316.09 360.767L260.867 340.405Z" fill="#4F4F4F"/>
<path opacity="0.1" d="M343.524 331.008C343.524 331.008 383.071 345.104 396.253 347.062C409.435 349.02 343.524 331.008 343.524 331.008Z" fill="#4F4F4F"/>
<path opacity="0.1" d="M387.389 285.647C366.725 289.829 327.819 288.929 311.003 288.294C317.166 264.017 347.222 272.271 347.222 272.271C384.425 264.111 387.275 281.042 387.389 285.647Z" fill="#4F4F4F"/>
<path d="M387.389 284.081C366.725 288.263 327.819 287.362 311.003 286.728C317.166 262.45 347.222 270.705 347.222 270.705C384.425 262.544 387.275 279.476 387.389 284.081Z" fill="#6C63FF"/>
<path d="M387.389 284.081C366.725 288.263 327.819 287.362 311.003 286.728C317.166 262.45 347.222 270.705 347.222 270.705C384.425 262.544 387.275 279.476 387.389 284.081Z" fill="url(#paint1_linear)"/>
<path d="M497.08 391.115C497.08 391.115 521.421 387.003 521.898 398.75C522.376 410.498 509.485 418.705 509.485 418.705L497.08 391.115Z" fill="#FBBEBE"/>
<path opacity="0.1" d="M374.769 257.297C373.723 257.811 372.652 258.266 371.563 258.66C363.882 261.573 356.136 264.51 348.049 265.575C339.961 266.64 331.474 265.7 324.42 261.268C323.679 260.808 322.966 260.298 322.283 259.741C321.499 242.511 319.61 225.673 319.61 225.673C319.61 225.673 381.603 193.564 374.477 219.017C371.641 229.299 372.603 243.741 374.769 257.297Z" fill="#4F4F4F"/>
<path d="M337.168 150.311C336.151 150.606 335.085 150.636 334.056 150.398C333.026 150.16 332.062 149.661 331.239 148.94L332.721 151.203C331.848 151.314 330.963 151.214 330.129 150.91C329.294 150.605 328.53 150.104 327.89 149.441C327.756 151.467 327.832 153.504 328.118 155.511C325.666 155.641 323.251 154.808 321.306 153.161C321.268 153.868 321.428 154.57 321.765 155.174C322.101 155.777 322.598 156.253 323.187 156.537C320.724 156.213 318.237 156.886 316.192 158.429C314.147 159.973 312.682 162.281 312.072 164.924L315.791 165.3C312.868 165.986 310.244 167.746 308.352 170.289C307.212 171.855 306.343 173.86 306.841 175.771C307.34 177.682 309.749 178.904 311.06 177.541C309.195 179.987 307.839 182.853 307.088 185.936C306.337 189.019 306.209 192.246 306.713 195.389C307.051 196.728 307.162 198.125 307.041 199.508C306.806 200.8 306.065 201.92 305.694 203.181C304.982 205.468 305.659 207.951 306.293 210.23L309.635 222.306C310.846 226.668 312.05 231.038 313.632 235.259C314.752 237.928 315.704 240.678 316.482 243.49C317.38 247.281 317.416 251.431 319.332 254.744C320.646 256.829 322.402 258.53 324.449 259.701C331.496 264.134 340.011 265.074 348.077 264.009C356.143 262.944 363.882 260.007 371.556 257.094C373.261 256.529 374.897 255.74 376.43 254.744C381.738 250.922 382.921 243.106 383.912 236.223C385.016 228.548 386.491 220.888 389.106 213.668C390.659 209.368 392.669 205.006 392.327 200.401C391.892 194.285 387.489 189.327 386.398 183.313C386.033 181.302 386.05 179.231 386.448 177.228C386.786 176.034 386.976 174.796 387.011 173.547C386.89 171.025 385.009 169.083 383.242 167.462C379.408 163.943 375.451 160.617 371.371 157.484C371.164 155.918 373.102 155.244 373.979 154.007C375.218 152.261 373.936 149.488 372.055 148.674C370.173 147.859 368.064 148.392 366.105 148.932C366.232 147.83 366.033 146.712 365.536 145.744C365.039 144.776 364.271 144.011 363.346 143.561C362.422 143.111 361.39 143.002 360.404 143.248C359.418 143.495 358.531 144.085 357.875 144.93C357.354 143.619 356.523 142.485 355.468 141.647C354.412 140.81 353.171 140.299 351.875 140.169C347.151 139.762 347.058 143.732 344.037 145.917C341.016 148.102 338.522 145.22 336.199 143.121C335.772 144.308 335.637 145.597 335.807 146.859C335.977 148.121 336.446 149.311 337.168 150.311V150.311Z" fill="#101820"/>
<path d="M515.129 414.609C515.129 414.609 514.495 416.269 513.326 418.674C511.558 422.373 509.406 425.834 506.913 428.988L506.721 429.215H505.566L464.423 429.63H463.44L463.319 429.473L455.338 419.065L452.331 415.142L452.21 414.977L451.954 414.648L451.811 414.46L451.626 414.218L445.776 406.59L447.913 396.8L451.555 380.307L451.647 379.908L452.36 376.775L452.866 374.426L454.562 366.766L460.376 340.413L470.708 346.287L481.603 367.432L487.453 378.788H490.66C491.265 378.788 492.655 380.072 494.051 381.552C494.55 382.077 495.049 382.633 495.477 383.119C496.745 384.56 497.75 385.797 497.75 385.797C497.75 385.797 502.944 385.922 504.341 390.418C504.413 390.635 504.472 390.857 504.519 391.083C504.983 392.85 505.586 394.569 506.322 396.221C507.241 398.421 508.395 400.92 509.564 403.418C511.737 407.999 513.946 412.361 514.758 413.943L514.858 414.139L515.129 414.609Z" fill="#6C63FF"/>
<path d="M515.129 414.609C515.129 414.609 514.495 416.269 513.326 418.674C511.558 422.373 509.406 425.834 506.913 428.988L506.721 429.215H505.566L464.423 429.63H463.44L463.319 429.473L455.338 419.065L452.331 415.142L452.21 414.977L451.954 414.648L451.811 414.46L451.626 414.218L445.776 406.59L447.913 396.8L451.555 380.307L451.647 379.908L452.36 376.775L452.866 374.426L454.562 366.766L460.376 340.413L470.708 346.287L481.603 367.432L487.453 378.788H490.66C491.265 378.788 492.655 380.072 494.051 381.552C494.55 382.077 495.049 382.633 495.477 383.119C496.745 384.56 497.75 385.797 497.75 385.797C497.75 385.797 502.944 385.922 504.341 390.418C504.413 390.635 504.472 390.857 504.519 391.083C504.983 392.85 505.586 394.569 506.322 396.221C507.241 398.421 508.395 400.92 509.564 403.418C511.737 407.999 513.946 412.361 514.758 413.943L514.858 414.139L515.129 414.609Z" fill="url(#paint2_linear)"/>
<path opacity="0.1" d="M453.92 379.25L453.849 380.37V380.448L453.728 382.249L452.78 396.745L451.633 414.21L451.305 419.128L450.593 429.654V429.787L374.349 430.57L249.231 432.058V432.716H249.131V432.058V431.839L249.452 420.592L250.065 398.617L250.592 379.986L250.642 378.13C250.673 377.01 250.912 375.908 251.343 374.893C251.775 373.877 252.39 372.969 253.152 372.223C253.913 371.478 254.805 370.911 255.773 370.557C256.74 370.203 257.763 370.07 258.779 370.165C262.143 370.479 266.511 370.862 271.734 371.269L273.871 371.442C304.034 373.744 359.777 376.72 416.027 373.008C417.209 372.938 418.399 372.859 419.589 372.765C428.311 372.162 437.026 371.387 445.655 370.416C446.746 370.29 447.848 370.429 448.885 370.822C449.922 371.216 450.867 371.854 451.655 372.693C452.443 373.531 453.055 374.549 453.446 375.675C453.837 376.802 453.999 378.008 453.92 379.211V379.25Z" fill="#4F4F4F"/>
<path d="M249.21 432.716V432.058L374.349 430.562L450.593 429.779H450.806V429.646L451.519 419.12L451.825 414.421L452.994 396.714L453.913 382.696V382.351C453.956 381.705 453.929 381.056 453.835 380.417C453.839 380.391 453.839 380.364 453.835 380.338C453.639 379.017 453.15 377.768 452.41 376.704C451.625 375.599 450.597 374.731 449.423 374.183C448.248 373.635 446.966 373.424 445.697 373.572C437.068 374.543 428.354 375.318 419.632 375.921C418.442 376.015 417.252 376.094 416.069 376.164C359.82 379.837 304.077 376.861 273.914 374.598L271.776 374.426C266.553 374.018 262.185 373.642 258.822 373.321C256.972 373.15 255.129 373.737 253.65 374.971C252.171 376.205 251.16 377.997 250.813 380.002C250.741 380.426 250.698 380.855 250.685 381.286L250.2 398.641L249.538 420.624L249.224 431.87V432.089V432.747L249.21 432.716Z" fill="#101820"/>
<path opacity="0.1" d="M454.134 384.74L453.258 396.745L451.954 414.64L451.626 419.12L450.913 429.152L450.871 429.654V429.787L450.764 430.946L450.842 429.787H450.635L374.392 430.57L249.231 432.058V431.839L249.58 420.592L250.293 398.617L250.749 384.011C250.771 383.18 250.983 382.369 251.363 381.651C251.744 380.933 252.283 380.331 252.929 379.9C253.736 379.356 254.68 379.109 255.623 379.195C257.119 379.328 258.958 379.485 261.102 379.657C264.587 379.939 268.883 380.268 273.886 380.612C283.149 381.255 294.771 381.944 308.088 382.508C345.141 384.074 395.163 384.599 442.676 380.025C444.814 379.821 447.023 379.594 449.182 379.367C450.036 379.274 450.897 379.453 451.662 379.884C451.878 380.003 452.083 380.144 452.274 380.307C452.895 380.801 453.386 381.465 453.699 382.234C453.772 382.386 453.832 382.546 453.878 382.711C454.092 383.36 454.179 384.051 454.134 384.74V384.74Z" fill="#4F4F4F"/>
<path opacity="0.1" d="M212.413 395.461V397.959C212.414 398.868 212.18 399.758 211.738 400.526C211.297 401.294 210.666 401.908 209.919 402.298L181.346 402.901C180.586 402.518 179.942 401.904 179.491 401.13C179.04 400.357 178.801 399.457 178.802 398.539V396.189L212.413 395.461Z" fill="#4F4F4F"/>
<path d="M212.77 403.77L175.538 404.553V397.764L212.77 396.98V403.77Z" fill="#101820"/>
<path opacity="0.1" d="M212.77 403.77L175.538 404.553V397.764L212.77 396.98V403.77Z" fill="#4F4F4F"/>
<path d="M214.195 403.77L176.964 404.553V397.764L214.195 396.98V403.77Z" fill="#101820"/>
<g opacity="0.1">
<path opacity="0.1" d="M337.46 147.742C336.764 146.748 336.301 145.58 336.113 144.343C335.941 145.553 336.044 146.79 336.412 147.945C336.766 147.91 337.117 147.841 337.46 147.742Z" fill="#4F4F4F"/>
<path opacity="0.1" d="M328.41 152.942C328.276 151.982 328.188 151.015 328.147 150.044C328.147 151.008 328.147 151.979 328.147 152.95L328.41 152.942Z" fill="#4F4F4F"/>
<path opacity="0.1" d="M386.484 179.076C386.523 178.378 386.609 177.684 386.74 177C387.077 175.809 387.269 174.574 387.31 173.327C387.294 173.048 387.256 172.77 387.196 172.497C387.075 173.218 386.883 173.938 386.74 174.651C386.456 176.104 386.369 177.595 386.484 179.076Z" fill="#4F4F4F"/>
<path opacity="0.1" d="M371.663 154.876L372.439 155.495C373.094 154.975 373.707 154.393 374.271 153.756C374.539 153.349 374.705 152.871 374.752 152.371C374.8 151.871 374.727 151.365 374.541 150.906C374.47 151.085 374.379 151.253 374.271 151.407C373.394 152.644 371.456 153.326 371.663 154.876Z" fill="#4F4F4F"/>
<path opacity="0.1" d="M313.112 162.41C312.852 162.982 312.644 163.58 312.492 164.196C313.607 163.512 314.807 163.013 316.055 162.716L313.112 162.41Z" fill="#4F4F4F"/>
<path opacity="0.1" d="M322.938 153.89C322.47 153.606 322.022 153.284 321.598 152.926C321.58 153.236 321.602 153.547 321.663 153.85C322.088 153.828 322.514 153.841 322.938 153.89V153.89Z" fill="#4F4F4F"/>
<path opacity="0.1" d="M392.605 200.033C392.313 203.831 390.702 207.489 389.398 211.091C386.783 218.312 385.308 225.971 384.204 233.654C383.213 240.538 382.066 248.354 376.722 252.167C375.195 253.17 373.56 253.959 371.855 254.517C364.174 257.438 356.428 260.367 348.341 261.432C340.253 262.497 331.767 261.565 324.712 257.133C322.667 255.96 320.911 254.259 319.596 252.175C317.694 248.863 317.658 244.712 316.746 240.921C315.968 238.107 315.016 235.354 313.896 232.683C312.321 228.469 311.11 224.068 309.905 219.737C308.789 215.712 307.675 211.684 306.563 207.653C306.197 206.441 305.926 205.196 305.751 203.933C305.473 205.938 306.015 208.037 306.563 210.003C307.675 214.038 308.789 218.066 309.905 222.087C311.11 226.449 312.321 230.819 313.896 235.032C315.016 237.704 315.968 240.456 316.746 243.271C317.644 247.061 317.679 251.212 319.596 254.525C320.911 256.608 322.667 258.309 324.712 259.482C331.767 263.915 340.275 264.847 348.341 263.782C356.407 262.717 364.145 259.788 371.855 256.866C373.56 256.309 375.195 255.52 376.722 254.517C382.03 250.703 383.213 242.887 384.204 236.003C385.308 228.32 386.783 220.661 389.398 213.441C390.952 209.149 392.961 204.787 392.619 200.174C392.619 200.127 392.605 200.08 392.605 200.033Z" fill="#4F4F4F"/>
<path opacity="0.1" d="M307.318 197.002C307.318 197.002 307.318 196.947 307.318 196.916C307.446 195.535 307.335 194.14 306.99 192.804C306.848 191.945 306.755 191.077 306.713 190.204C306.631 191.861 306.724 193.522 306.99 195.154C307.104 195.765 307.232 196.383 307.318 197.002Z" fill="#4F4F4F"/>
<path opacity="0.1" d="M309.492 177.846C310.04 176.834 310.662 175.873 311.352 174.972C310.048 176.343 307.639 175.121 307.134 173.218C306.947 173.988 306.947 174.798 307.134 175.567C307.309 176.142 307.62 176.655 308.034 177.056C308.448 177.456 308.951 177.729 309.492 177.846V177.846Z" fill="#4F4F4F"/>
</g>
<path opacity="0.1" d="M487.46 378.78C487.46 378.78 489.719 387.786 487.46 395.618C485.202 403.449 487.46 378.78 487.46 378.78Z" fill="#4F4F4F"/>
<path opacity="0.1" d="M497.08 387.966C497.08 387.966 498.028 399.4 495.89 401.429C493.752 403.457 497.08 387.966 497.08 387.966Z" fill="#4F4F4F"/>
<path d="M141.792 268.512L214.195 267.729" stroke="#6C63FF" stroke-width="2" stroke-miterlimit="10"/>
<path d="M141.792 278.278L214.195 277.503" stroke="#6C63FF" stroke-width="2" stroke-miterlimit="10"/>
<path d="M141.792 288.052L214.195 287.268" stroke="#6C63FF" stroke-width="2" stroke-miterlimit="10"/>
</g>
<defs>
<linearGradient id="paint0_linear" x1="343.955" y1="268.488" x2="343.955" y2="432.716" gradientUnits="userSpaceOnUse">
<stop stop-color="white"/>
<stop offset="0.536458" stop-color="white" stop-opacity="0"/>
</linearGradient>
<linearGradient id="paint1_linear" x1="349.196" y1="268.514" x2="349.196" y2="287.275" gradientUnits="userSpaceOnUse">
<stop stop-color="white"/>
<stop offset="1" stop-color="white" stop-opacity="0"/>
</linearGradient>
<linearGradient id="paint2_linear" x1="480.452" y1="340.413" x2="480.452" y2="429.63" gradientUnits="userSpaceOnUse">
<stop stop-color="white"/>
<stop offset="1" stop-color="white" stop-opacity="0"/>
</linearGradient>
<clipPath id="clip0">
<rect width="742" height="434" fill="white"/>
</clipPath>
</defs>
</svg>
